.
..............................Site Info...........................

 -   http://www.scenetime.com  *_*   

SceneTime is going to Close sign up on march/1, hurry up! get in before the doors are closed.

     We care to share . Join us on  http://www.scenetime.com 

    Be the first to get new release at  http://www.scenetime.com

        Seed back for speed


...................................NFO:.................................................
                           ______  _   _  _____ ______  _____  _____ 
                           | ___ \| | | ||  _  || ___ \|  _  |/  ___|
                           | |_/ /| |_| || | | || |_/ /| | | |\ `--. 
                           |  __/ |  _  || | | || ___ \| | | | `--. \
                           | |    | | | |\ \_/ /| |_/ /\ \_/ //\__/ /
                           \_|    \_| |_/ \___/ \____/  \___/ \____/ 
                           
        
                                     Proudly presents
   
                 Silent.Movie.1976.iNTERNAL.DVDRip.XviD-PHOBOS                    
                                                                                  
      Release Date ...: 09/Feb/2011                                               
      DVD RLS Date ...: 05/Sep/2006                                               
      Runtime ........: 1h 27mn                                                   
      Language .......: English                                                   
      IMDb URL .......: http://www.imdb.com/title/tt0075222/                      
      File Size ......: 701 MB / 735,612,928 bytes                                
      Subtitles ......: N/A                                                       
                                                                                  
      Summary   
      Aspiring filmmakers Mel Funn, Marty Eggs and Dom Bell go to a financially   
      troubled studio with an idea for a silent movie. In an effort to make the   
      movie more marketable, they attempt to recruit a number of big name stars   
      to appear, while the studio's creditors attempt to thwart them. The film    
      contains only one word of dialogue, spoken by an unlikely source.           
     Tech Info  
      Video                                                                       
      ID                           : 0                                            
      Format                       : MPEG-4 Visual                                
      Format profile               : Advanced Simple@L5                           
      Format settings, BVOP        : 2                                            
      Format settings, QPel        : No                                           
      Format settings, GMC         : No warppoints                                
      Format settings, Matrix      : Default (H.263)                              
      Codec ID                     : XVID                                         
      Codec ID/Hint                : XviD                                         
      Duration                     : 1h 27mn                                      
      Bit rate                     : 974 Kbps                                     
      Width                        : 624 pixels                                   
      Height                       : 336 pixels                                   
      Display aspect ratio         : 1.857                                        
      Frame rate                   : 23.976 fps                                   
      Color space                  : YUV                                          
      Chroma subsampling           : 4:2:0                                        
      Bit depth                    : 8 bits                                       
      Scan type                    : Progressive                                  
      Compression mode             : Lossy                                        
      Bits/(Pixel*Frame)           : 0.194                                        
      Stream size                  : 609 MiB (87%)                                
      Writing library              : XviD 1.2.1 (UTC 2008-12-04)                  
                                                                                  
      Audio                                                                       
      ID                           : 1                                            
      Format                       : MPEG Audio                                   
      Format version               : Version 1                                    
      Format profile               : Layer 3                                      
      Mode                         : Joint stereo                                 
      Mode extension               : MS Stereo                                    
      Codec ID                     : 55                                           
      Codec ID/Hint                : MP3                                          
      Duration                     : 1h 27mn                                      
      Bit rate mode                : Variable                                     
      Bit rate                     : 136 Kbps                                     
      Minimum bit rate             : 32.0 Kbps                                    
      Channel(s)                   : 2 channels                                   
      Sampling rate                : 48.0 KHz                                     
      Compression mode             : Lossy                                                                       
      Stream size                  : 84.8 MiB (12%)                               
      Alignment                    : Aligned on interleaves                       
      Interleave, duration         : 24 ms (0.58 video frame)                     
      Interleave, preload duration : 135 ms                                       
      Writing library              : LAME3.98r                                    
      Encoding settings            : -m j -V 5 -q 0 -lowpass 16.5 --vbr-new -b 32 
                                                                                  
      Group Info   
     Our mission is to provide the scene with decent quality rips of Movie        
     classics.                                                                    
     Greets fly out to everyone that helped us, you know who you are guys.        
     Looking for decent affil sites (no ovh plz) and rippers/cappers.             
     Ask around for us or write to deimostv@hush.ai